<?xml version="1.0" encoding="utf-8"?>
<!-- Generator: Adobe Illustrator 17.0.0, SVG Export Plug-In . SVG Version: 6.00 Build 0)  -->
<!DOCTYPE svg PUBLIC "-//W3C//DTD SVG 1.1//EN" "http://www.w3.org/Graphics/SVG/1.1/DTD/svg11.dtd">
<svg version="1.1" id="Calque_1" xmlns="http://www.w3.org/2000/svg" xmlns:xlink="http://www.w3.org/1999/xlink" x="0px" y="0px"
	 width="150px" height="150px" viewBox="0 0 150 150" enable-background="new 0 0 150 150" xml:space="preserve">
<g>
	<path fill="#FFFFFF" d="M74.998,145.996c-39.424,0-71.499-32.074-71.499-71.5S35.574,2.997,74.998,2.997
		c39.426,0,71.502,32.074,71.502,71.499S114.424,145.996,74.998,145.996z M74.998,6.484c-37.501,0-68.011,30.51-68.011,68.012
		s30.51,68.012,68.011,68.012c37.504,0,68.014-30.51,68.014-68.012S112.502,6.484,74.998,6.484z"/>
	<path fill="#FFFFFF" d="M59.855,63.866h6.489v-6.306c0-2.783,0.07-7.073,2.09-9.729c2.129-2.813,5.05-4.726,10.076-4.726
		c8.188,0,11.635,1.168,11.635,1.168l-1.623,9.616c0,0-2.704-0.783-5.228-0.783c-2.525,0-4.785,0.905-4.785,3.427v7.333h10.351
		l-0.722,9.392H78.51v32.627H66.344V73.258h-6.489V63.866z"/>
</g>
</svg>
