<?xml version="1.0" encoding="utf-8"?>
<!-- Generator: Adobe Illustrator 17.0.0, SVG Export Plug-In . SVG Version: 6.00 Build 0)  -->
<!DOCTYPE svg PUBLIC "-//W3C//DTD SVG 1.1//EN" "http://www.w3.org/Graphics/SVG/1.1/DTD/svg11.dtd">
<svg version="1.1" id="Calque_1" xmlns="http://www.w3.org/2000/svg" xmlns:xlink="http://www.w3.org/1999/xlink" x="0px" y="0px"
	 width="150px" height="150px" viewBox="0 0 150 150" enable-background="new 0 0 150 150" xml:space="preserve">
<g>
	<path fill="#FFFFFF" d="M75,146.498c-39.424,0-71.498-32.074-71.498-71.498S35.576,3.502,75,3.502
		c39.424,0,71.498,32.074,71.498,71.498S114.424,146.498,75,146.498z M75,6.99C37.499,6.99,6.99,37.499,6.99,75
		S37.499,143.01,75,143.01s68.01-30.509,68.01-68.01S112.501,6.99,75,6.99z"/>
	<path fill="#FFFFFF" d="M94.264,43.633H55.751c-6.688,0-12.132,5.438-12.132,12.123v12.803v25.684
		c0,6.686,5.444,12.123,12.132,12.123h38.513c6.688,0,12.134-5.438,12.134-12.123V68.559V55.756
		C106.398,49.071,100.952,43.633,94.264,43.633z M97.743,50.865l1.386-0.007v1.383v9.249l-10.605,0.039l-0.037-10.635L97.743,50.865
		z M66.051,68.559c2.004-2.781,5.269-4.605,8.958-4.605c3.689,0,6.95,1.824,8.956,4.605c1.31,1.816,2.098,4.033,2.098,6.441
		c0,6.09-4.961,11.039-11.054,11.039c-6.095,0-11.051-4.949-11.051-11.039C63.958,72.592,64.743,70.375,66.051,68.559z
		 M100.281,94.244c0,3.317-2.697,6.01-6.017,6.01H55.751c-3.319,0-6.015-2.692-6.015-6.01V68.559h9.371
		c-0.807,1.993-1.265,4.164-1.265,6.441c0,9.462,7.701,17.154,17.166,17.154c9.465,0,17.164-7.692,17.164-17.154
		c0-2.277-0.46-4.448-1.264-6.441h9.371V94.244z"/>
</g>
</svg>
