<?xml version="1.0" encoding="utf-8"?>
<!-- Generator: Adobe Illustrator 17.0.0, SVG Export Plug-In . SVG Version: 6.00 Build 0)  -->
<!DOCTYPE svg PUBLIC "-//W3C//DTD SVG 1.1//EN" "http://www.w3.org/Graphics/SVG/1.1/DTD/svg11.dtd">
<svg version="1.1" id="Calque_1" xmlns="http://www.w3.org/2000/svg" xmlns:xlink="http://www.w3.org/1999/xlink" x="0px" y="0px"
	 width="150px" height="150px" viewBox="0 0 150 150" enable-background="new 0 0 150 150" xml:space="preserve">
<g>
	<path fill="#FFFFFF" d="M75.004,147C35.301,147,3,114.7,3,74.998C3,35.298,35.301,3,75.004,3C114.703,3,147,35.298,147,74.998
		C147,114.7,114.703,147,75.004,147z M75.004,6.512c-37.766,0-68.492,30.723-68.492,68.486c0,37.766,30.726,68.49,68.492,68.49
		c37.762,0,68.484-30.724,68.484-68.49C143.488,37.235,112.766,6.512,75.004,6.512z"/>
	<path fill="#FFFFFF" d="M87.936,53.647v12.046c-0.29,0.35-0.634,0.637-0.988,0.861c-0.384,0.223-0.665,0.348-0.924,0.348
		c-0.286,0-0.512-0.094-0.637-0.256c-0.161-0.189-0.225-0.442-0.225-0.826V53.647h-3.252v13.255c0,0.959,0.193,1.658,0.575,2.135
		c0.38,0.481,0.957,0.701,1.69,0.701c0.638,0,1.242-0.156,1.91-0.475c0.636-0.352,1.246-0.827,1.85-1.499v1.753h3.253V53.647H87.936
		z M78.023,54.415c-0.862-0.796-1.975-1.181-3.312-1.181c-1.466,0-2.645,0.385-3.538,1.117c-0.862,0.731-1.303,1.685-1.303,2.931
		v8.223c0,1.369,0.442,2.417,1.271,3.215c0.86,0.797,2.009,1.209,3.411,1.209c1.464,0,2.646-0.382,3.471-1.181
		c0.862-0.763,1.278-1.814,1.278-3.182v-8.188C79.301,56.166,78.853,55.178,78.023,54.415z M75.985,65.821
		c0,0.415-0.128,0.733-0.383,0.987c-0.252,0.257-0.604,0.382-1.05,0.382c-0.414,0-0.764-0.125-0.989-0.382
		c-0.22-0.223-0.352-0.572-0.352-0.987v-8.668c0-0.349,0.132-0.634,0.383-0.825c0.224-0.226,0.574-0.321,0.957-0.321
		c0.413,0,0.767,0.094,1.05,0.321c0.256,0.191,0.383,0.476,0.383,0.825V65.821z M65.915,48.006l-2.26,8.607h-0.256l-2.359-8.607
		h-3.692l4.362,13.002v8.51h3.666v-8.923l4.237-12.589H65.915z M91.251,85.897c0.187,0.256,0.282,0.698,0.282,1.273v1.463h-2.516
		V87.17c0-0.575,0.064-1.018,0.291-1.273c0.187-0.256,0.508-0.418,0.988-0.418C90.739,85.479,91.058,85.64,91.251,85.897z
		 M81.244,85.832c-0.191-0.257-0.511-0.383-0.893-0.383c-0.191,0-0.415,0.031-0.606,0.126c-0.192,0.097-0.411,0.257-0.603,0.45
		v8.985c0.222,0.223,0.475,0.414,0.7,0.508c0.224,0.096,0.446,0.162,0.668,0.162c0.385,0,0.638-0.097,0.796-0.322
		c0.161-0.187,0.256-0.509,0.256-0.988v-7.452C81.561,86.436,81.467,86.089,81.244,85.832z M81.244,85.832
		c-0.191-0.257-0.511-0.383-0.893-0.383c-0.191,0-0.415,0.031-0.606,0.126c-0.192,0.097-0.411,0.257-0.603,0.45v8.985
		c0.222,0.223,0.475,0.414,0.7,0.508c0.224,0.096,0.446,0.162,0.668,0.162c0.385,0,0.638-0.097,0.796-0.322
		c0.161-0.187,0.256-0.509,0.256-0.988v-7.452C81.561,86.436,81.467,86.089,81.244,85.832z M97.591,74.71H52.409
		c-4.942,0-9.019,4.081-9.019,9.05v9.213c0,4.967,4.076,9.017,9.019,9.017h45.182c4.938,0,9.019-4.05,9.019-9.017V83.76
		C106.61,78.791,102.529,74.71,97.591,74.71z M64.582,81.051h-3.379v16.698h-3.253V81.051h-3.343v-2.832h9.976V81.051z
		 M74.072,97.749h-2.898v-1.592c-0.512,0.603-1.084,1.049-1.654,1.338c-0.575,0.321-1.118,0.479-1.664,0.479
		c-0.665,0-1.176-0.225-1.526-0.669c-0.321-0.416-0.479-1.052-0.479-1.915V83.317h2.866v11.086c0,0.316,0.064,0.575,0.194,0.734
		c0.097,0.159,0.318,0.22,0.577,0.22c0.217,0,0.476-0.093,0.797-0.316c0.346-0.193,0.635-0.448,0.888-0.765v-10.96h2.898V97.749z
		 M84.523,94.754c0,1.02-0.22,1.814-0.668,2.359c-0.443,0.539-1.115,0.827-1.971,0.827c-0.579,0-1.057-0.097-1.502-0.316
		c-0.446-0.227-0.86-0.542-1.24-0.99v1.115h-2.9v-19.53h2.9v6.272c0.38-0.411,0.794-0.762,1.24-0.988
		c0.445-0.22,0.893-0.346,1.338-0.346c0.893,0,1.596,0.316,2.071,0.924c0.483,0.604,0.732,1.494,0.732,2.676V94.754z M94.532,90.899
		h-5.515v2.707c0,0.763,0.064,1.278,0.26,1.564c0.185,0.316,0.538,0.443,0.988,0.443c0.474,0,0.793-0.127,0.986-0.382
		c0.187-0.223,0.282-0.798,0.282-1.626v-0.669h3v0.731c0,1.502-0.381,2.614-1.119,3.348c-0.697,0.763-1.785,1.115-3.213,1.115
		c-1.31,0-2.329-0.382-3.063-1.178c-0.731-0.797-1.113-1.88-1.113-3.285v-6.465c0-1.245,0.413-2.264,1.244-3.059
		c0.794-0.767,1.845-1.181,3.15-1.181c1.309,0,2.33,0.383,3.025,1.116c0.708,0.732,1.088,1.751,1.088,3.123V90.899z M80.352,85.448
		c-0.191,0-0.415,0.031-0.606,0.126c-0.192,0.097-0.411,0.257-0.603,0.45v8.985c0.222,0.223,0.475,0.414,0.7,0.508
		c0.224,0.096,0.446,0.162,0.668,0.162c0.385,0,0.638-0.097,0.796-0.322c0.161-0.187,0.256-0.509,0.256-0.988v-7.452
		c0-0.481-0.094-0.828-0.317-1.085C81.053,85.574,80.733,85.448,80.352,85.448z M81.244,85.832
		c-0.191-0.257-0.511-0.383-0.893-0.383c-0.191,0-0.415,0.031-0.606,0.126c-0.192,0.097-0.411,0.257-0.603,0.45v8.985
		c0.222,0.223,0.475,0.414,0.7,0.508c0.224,0.096,0.446,0.162,0.668,0.162c0.385,0,0.638-0.097,0.796-0.322
		c0.161-0.187,0.256-0.509,0.256-0.988v-7.452C81.561,86.436,81.467,86.089,81.244,85.832z M81.244,85.832
		c-0.191-0.257-0.511-0.383-0.893-0.383c-0.191,0-0.415,0.031-0.606,0.126c-0.192,0.097-0.411,0.257-0.603,0.45v8.985
		c0.222,0.223,0.475,0.414,0.7,0.508c0.224,0.096,0.446,0.162,0.668,0.162c0.385,0,0.638-0.097,0.796-0.322
		c0.161-0.187,0.256-0.509,0.256-0.988v-7.452C81.561,86.436,81.467,86.089,81.244,85.832z"/>
</g>
</svg>
