<?xml version="1.0" encoding="utf-8"?>
<!-- Generator: Adobe Illustrator 17.0.0, SVG Export Plug-In . SVG Version: 6.00 Build 0)  -->
<!DOCTYPE svg PUBLIC "-//W3C//DTD SVG 1.1//EN" "http://www.w3.org/Graphics/SVG/1.1/DTD/svg11.dtd">
<svg version="1.1" id="Calque_1" xmlns="http://www.w3.org/2000/svg" xmlns:xlink="http://www.w3.org/1999/xlink" x="0px" y="0px"
	 width="150px" height="150px" viewBox="0 0 150 150" enable-background="new 0 0 150 150" xml:space="preserve">
<g>
	<path fill="#FFFFFF" d="M75.002,146.748c-39.563,0-71.749-32.186-71.749-71.748S35.439,3.252,75.002,3.252
		c39.561,0,71.746,32.186,71.746,71.748S114.563,146.748,75.002,146.748z M75.002,6.752C37.369,6.752,6.752,37.368,6.752,75
		s30.616,68.248,68.249,68.248c37.632,0,68.246-30.616,68.246-68.248S112.633,6.752,75.002,6.752z"/>
	<path fill="#FFFFFF" d="M106.5,58.871c-2.319,1.027-4.811,1.722-7.424,2.035c2.673-1.599,4.722-4.13,5.682-7.148
		c-2.499,1.481-5.26,2.555-8.212,3.132c-2.35-2.511-5.713-4.08-9.432-4.08c-7.135,0-12.922,5.788-12.922,12.924
		c0,1.015,0.109,1.999,0.333,2.944c-10.739-0.541-20.262-5.681-26.643-13.505c-1.113,1.915-1.747,4.134-1.747,6.503
		c0,4.48,2.281,8.437,5.747,10.758c-2.114-0.065-4.11-0.652-5.857-1.614v0.158c0,6.266,4.457,11.489,10.372,12.673
		c-1.084,0.303-2.223,0.456-3.406,0.456c-0.832,0-1.642-0.077-2.43-0.229c1.644,5.134,6.414,8.872,12.072,8.971
		c-4.424,3.469-10.001,5.534-16.052,5.534c-1.042,0-2.073-0.058-3.083-0.179c5.72,3.664,12.515,5.805,19.81,5.805
		c23.78,0,36.775-19.691,36.775-36.774c0-0.561-0.01-1.121-0.036-1.671C102.578,63.738,104.774,61.461,106.5,58.871"/>
</g>
</svg>
